<?xml version="1.0" encoding="us-ascii" standalone="no"?><svg xmlns="http://www.w3.org/2000/svg" xmlns:xlink="http://www.w3.org/1999/xlink" contentStyleType="text/css" height="473px" preserveAspectRatio="none" style="width:1258px;height:473px;background:#FFFFFF;" version="1.1" viewBox="0 0 1258 473" width="1258px" zoomAndPan="magnify"><defs/><g><!--cluster MegaBeetle EUROBOT Project--><g id="cluster_MegaBeetle EUROBOT Project"><path d="M13.5,11 L246.5,11 A3.75,3.75 0 0 1 249,13.5 L256,33.2969 L1248.5,33.2969 A2.5,2.5 0 0 1 1251,35.7969 L1251,463.69 A2.5,2.5 0 0 1 1248.5,466.19 L13.5,466.19 A2.5,2.5 0 0 1 11,463.69 L11,13.5 A2.5,2.5 0 0 1 13.5,11 " fill="#FFFFFF" style="stroke:#000000;stroke-width:1.0;"/><line style="stroke:#000000;stroke-width:1.0;" x1="11" x2="256" y1="33.2969" y2="33.2969"/><text fill="#000000" font-family="Verdana" font-size="14" font-weight="bold" lengthAdjust="spacing" textLength="232" x="15" y="25.9951">MegaBeetle EUROBOT Project</text></g><!--cluster MCS--><g id="cluster_MCS"><rect fill="#FFFFFF" height="97.3" rx="2.5" ry="2.5" style="stroke:#000000;stroke-width:1.0;" width="498" x="729" y="117.3"/><rect fill="#FFFFFF" height="10" style="stroke:#000000;stroke-width:1.0;" width="15" x="1207" y="122.3"/><rect fill="#FFFFFF" height="2" style="stroke:#000000;stroke-width:1.0;" width="4" x="1205" y="124.3"/><rect fill="#FFFFFF" height="2" style="stroke:#000000;stroke-width:1.0;" width="4" x="1205" y="128.3"/><text fill="#000000" font-family="Verdana" font-size="14" font-weight="bold" lengthAdjust="spacing" textLength="162" x="897" y="143.2951">Main Control System</text></g><!--cluster LCD--><g id="cluster_LCD"><rect fill="#FFFFFF" height="203.59" rx="2.5" ry="2.5" style="stroke:#000000;stroke-width:1.0;" width="518" x="51" y="238.6"/><rect fill="#FFFFFF" height="10" style="stroke:#000000;stroke-width:1.0;" width="15" x="549" y="243.6"/><rect fill="#FFFFFF" height="2" style="stroke:#000000;stroke-width:1.0;" width="4" x="547" y="245.6"/><rect fill="#FFFFFF" height="2" style="stroke:#000000;stroke-width:1.0;" width="4" x="547" y="249.6"/><text fill="#000000" font-family="Verdana" font-size="14" font-weight="bold" lengthAdjust="spacing" textLength="155" x="232.5" y="264.5951">LCD Display System</text></g><!--cluster USA--><g id="cluster_USA"><rect fill="#FFFFFF" height="203.59" rx="2.5" ry="2.5" style="stroke:#000000;stroke-width:1.0;" width="617" x="593" y="238.6"/><rect fill="#FFFFFF" height="10" style="stroke:#000000;stroke-width:1.0;" width="15" x="1190" y="243.6"/><rect fill="#FFFFFF" height="2" style="stroke:#000000;stroke-width:1.0;" width="4" x="1188" y="245.6"/><rect fill="#FFFFFF" height="2" style="stroke:#000000;stroke-width:1.0;" width="4" x="1188" y="249.6"/><text fill="#000000" font-family="Verdana" font-size="14" font-weight="bold" lengthAdjust="spacing" textLength="188" x="807.5" y="264.5951">Ultrasonic Sensor Array</text></g><!--entity Arduino Uno R3--><g id="elem_Arduino Uno R3"><rect fill="#FFFFFF" height="46.2969" rx="2.5" ry="2.5" style="stroke:#000000;stroke-width:1.0;" width="148" x="619" y="46"/><rect fill="#FFFFFF" height="10" style="stroke:#000000;stroke-width:1.0;" width="15" x="747" y="51"/><rect fill="#FFFFFF" height="2" style="stroke:#000000;stroke-width:1.0;" width="4" x="745" y="53"/><rect fill="#FFFFFF" height="2" style="stroke:#000000;stroke-width:1.0;" width="4" x="745" y="57"/><text fill="#000000" font-family="Verdana" font-size="14" lengthAdjust="spacing" textLength="108" x="634" y="78.9951">Arduino Uno R3</text></g><!--entity Adafruit Motor Shield--><g id="elem_Adafruit Motor Shield"><rect fill="#FFFFFF" height="46.2969" rx="2.5" ry="2.5" style="stroke:#000000;stroke-width:1.0;" width="182" x="27" y="152.3"/><rect fill="#FFFFFF" height="10" style="stroke:#000000;stroke-width:1.0;" width="15" x="189" y="157.3"/><rect fill="#FFFFFF" height="2" style="stroke:#000000;stroke-width:1.0;" width="4" x="187" y="159.3"/><rect fill="#FFFFFF" height="2" style="stroke:#000000;stroke-width:1.0;" width="4" x="187" y="163.3"/><text fill="#000000" font-family="Verdana" font-size="14" lengthAdjust="spacing" textLength="142" x="42" y="185.2951">Adafruit Motor Shield</text></g><!--entity Raspberry Pi Pico (LCD)--><g id="elem_Raspberry Pi Pico (LCD)"><rect fill="#FFFFFF" height="46.2969" rx="2.5" ry="2.5" style="stroke:#000000;stroke-width:1.0;" width="201" x="244.5" y="152.3"/><rect fill="#FFFFFF" height="10" style="stroke:#000000;stroke-width:1.0;" width="15" x="425.5" y="157.3"/><rect fill="#FFFFFF" height="2" style="stroke:#000000;stroke-width:1.0;" width="4" x="423.5" y="159.3"/><rect fill="#FFFFFF" height="2" style="stroke:#000000;stroke-width:1.0;" width="4" x="423.5" y="163.3"/><text fill="#000000" font-family="Verdana" font-size="14" lengthAdjust="spacing" textLength="161" x="259.5" y="185.2951">Raspberry Pi Pico (LCD)</text></g><!--entity Raspberry Pi Pico (Sensors)--><g id="elem_Raspberry Pi Pico (Sensors)"><rect fill="#FFFFFF" height="46.2969" rx="2.5" ry="2.5" style="stroke:#000000;stroke-width:1.0;" width="230" x="480" y="152.3"/><rect fill="#FFFFFF" height="10" style="stroke:#000000;stroke-width:1.0;" width="15" x="690" y="157.3"/><rect fill="#FFFFFF" height="2" style="stroke:#000000;stroke-width:1.0;" width="4" x="688" y="159.3"/><rect fill="#FFFFFF" height="2" style="stroke:#000000;stroke-width:1.0;" width="4" x="688" y="163.3"/><text fill="#000000" font-family="Verdana" font-size="14" lengthAdjust="spacing" textLength="190" x="495" y="185.2951">Raspberry Pi Pico (Sensors)</text></g><!--entity Task Management--><g id="elem_Task Management"><rect fill="#FFFFFF" height="46.2969" rx="2.5" ry="2.5" style="stroke:#000000;stroke-width:1.0;" width="168" x="1043" y="152.3"/><rect fill="#FFFFFF" height="10" style="stroke:#000000;stroke-width:1.0;" width="15" x="1191" y="157.3"/><rect fill="#FFFFFF" height="2" style="stroke:#000000;stroke-width:1.0;" width="4" x="1189" y="159.3"/><rect fill="#FFFFFF" height="2" style="stroke:#000000;stroke-width:1.0;" width="4" x="1189" y="163.3"/><text fill="#000000" font-family="Verdana" font-size="14" lengthAdjust="spacing" textLength="128" x="1058" y="185.2951">Task Management</text></g><!--entity Motor Control--><g id="elem_Motor Control"><rect fill="#FFFFFF" height="46.2969" rx="2.5" ry="2.5" style="stroke:#000000;stroke-width:1.0;" width="134" x="874" y="152.3"/><rect fill="#FFFFFF" height="10" style="stroke:#000000;stroke-width:1.0;" width="15" x="988" y="157.3"/><rect fill="#FFFFFF" height="2" style="stroke:#000000;stroke-width:1.0;" width="4" x="986" y="159.3"/><rect fill="#FFFFFF" height="2" style="stroke:#000000;stroke-width:1.0;" width="4" x="986" y="163.3"/><text fill="#000000" font-family="Verdana" font-size="14" lengthAdjust="spacing" textLength="94" x="889" y="185.2951">Motor Control</text></g><!--entity Logging--><g id="elem_Logging"><rect fill="#FFFFFF" height="46.2969" rx="2.5" ry="2.5" style="stroke:#000000;stroke-width:1.0;" width="95" x="744.5" y="152.3"/><rect fill="#FFFFFF" height="10" style="stroke:#000000;stroke-width:1.0;" width="15" x="819.5" y="157.3"/><rect fill="#FFFFFF" height="2" style="stroke:#000000;stroke-width:1.0;" width="4" x="817.5" y="159.3"/><rect fill="#FFFFFF" height="2" style="stroke:#000000;stroke-width:1.0;" width="4" x="817.5" y="163.3"/><text fill="#000000" font-family="Verdana" font-size="14" lengthAdjust="spacing" textLength="55" x="759.5" y="185.2951">Logging</text></g><!--entity 16x2 LCD Screen--><g id="elem_16x2 LCD Screen"><rect fill="#FFFFFF" height="46.2969" rx="2.5" ry="2.5" style="stroke:#000000;stroke-width:1.0;" width="159" x="246.5" y="273.6"/><rect fill="#FFFFFF" height="10" style="stroke:#000000;stroke-width:1.0;" width="15" x="385.5" y="278.6"/><rect fill="#FFFFFF" height="2" style="stroke:#000000;stroke-width:1.0;" width="4" x="383.5" y="280.6"/><rect fill="#FFFFFF" height="2" style="stroke:#000000;stroke-width:1.0;" width="4" x="383.5" y="284.6"/><text fill="#000000" font-family="Verdana" font-size="14" lengthAdjust="spacing" textLength="119" x="261.5" y="306.5951">16x2 LCD Screen</text></g><!--entity Score Display--><g id="elem_Score Display"><rect fill="#FFFFFF" height="46.2969" rx="2.5" ry="2.5" style="stroke:#000000;stroke-width:1.0;" width="133" x="66.5" y="379.89"/><rect fill="#FFFFFF" height="10" style="stroke:#000000;stroke-width:1.0;" width="15" x="179.5" y="384.89"/><rect fill="#FFFFFF" height="2" style="stroke:#000000;stroke-width:1.0;" width="4" x="177.5" y="386.89"/><rect fill="#FFFFFF" height="2" style="stroke:#000000;stroke-width:1.0;" width="4" x="177.5" y="390.89"/><text fill="#000000" font-family="Verdana" font-size="14" lengthAdjust="spacing" textLength="93" x="81.5" y="412.8851">Score Display</text></g><!--entity Team Selection--><g id="elem_Team Selection"><rect fill="#FFFFFF" height="46.2969" rx="2.5" ry="2.5" style="stroke:#000000;stroke-width:1.0;" width="147" x="234.5" y="379.89"/><rect fill="#FFFFFF" height="10" style="stroke:#000000;stroke-width:1.0;" width="15" x="361.5" y="384.89"/><rect fill="#FFFFFF" height="2" style="stroke:#000000;stroke-width:1.0;" width="4" x="359.5" y="386.89"/><rect fill="#FFFFFF" height="2" style="stroke:#000000;stroke-width:1.0;" width="4" x="359.5" y="390.89"/><text fill="#000000" font-family="Verdana" font-size="14" lengthAdjust="spacing" textLength="107" x="249.5" y="412.8851">Team Selection</text></g><!--entity User Interface--><g id="elem_User Interface"><rect fill="#FFFFFF" height="46.2969" rx="2.5" ry="2.5" style="stroke:#000000;stroke-width:1.0;" width="136" x="417" y="379.89"/><rect fill="#FFFFFF" height="10" style="stroke:#000000;stroke-width:1.0;" width="15" x="533" y="384.89"/><rect fill="#FFFFFF" height="2" style="stroke:#000000;stroke-width:1.0;" width="4" x="531" y="386.89"/><rect fill="#FFFFFF" height="2" style="stroke:#000000;stroke-width:1.0;" width="4" x="531" y="390.89"/><text fill="#000000" font-family="Verdana" font-size="14" lengthAdjust="spacing" textLength="96" x="432" y="412.8851">User Interface</text></g><!--entity 8 Ultrasonic Sensors--><g id="elem_8 Ultrasonic Sensors"><rect fill="#FFFFFF" height="46.2969" rx="2.5" ry="2.5" style="stroke:#000000;stroke-width:1.0;" width="182" x="704" y="273.6"/><rect fill="#FFFFFF" height="10" style="stroke:#000000;stroke-width:1.0;" width="15" x="866" y="278.6"/><rect fill="#FFFFFF" height="2" style="stroke:#000000;stroke-width:1.0;" width="4" x="864" y="280.6"/><rect fill="#FFFFFF" height="2" style="stroke:#000000;stroke-width:1.0;" width="4" x="864" y="284.6"/><text fill="#000000" font-family="Verdana" font-size="14" lengthAdjust="spacing" textLength="142" x="719" y="306.5951">8 Ultrasonic Sensors</text></g><!--entity Filtered Readings--><g id="elem_Filtered Readings"><rect fill="#FFFFFF" height="46.2969" rx="2.5" ry="2.5" style="stroke:#000000;stroke-width:1.0;" width="160" x="609" y="379.89"/><rect fill="#FFFFFF" height="10" style="stroke:#000000;stroke-width:1.0;" width="15" x="749" y="384.89"/><rect fill="#FFFFFF" height="2" style="stroke:#000000;stroke-width:1.0;" width="4" x="747" y="386.89"/><rect fill="#FFFFFF" height="2" style="stroke:#000000;stroke-width:1.0;" width="4" x="747" y="390.89"/><text fill="#000000" font-family="Verdana" font-size="14" lengthAdjust="spacing" textLength="120" x="624" y="412.8851">Filtered Readings</text></g><!--entity Obstacle Detection--><g id="elem_Obstacle Detection"><rect fill="#FFFFFF" height="46.2969" rx="2.5" ry="2.5" style="stroke:#000000;stroke-width:1.0;" width="173" x="804.5" y="379.89"/><rect fill="#FFFFFF" height="10" style="stroke:#000000;stroke-width:1.0;" width="15" x="957.5" y="384.89"/><rect fill="#FFFFFF" height="2" style="stroke:#000000;stroke-width:1.0;" width="4" x="955.5" y="386.89"/><rect fill="#FFFFFF" height="2" style="stroke:#000000;stroke-width:1.0;" width="4" x="955.5" y="390.89"/><text fill="#000000" font-family="Verdana" font-size="14" lengthAdjust="spacing" textLength="133" x="819.5" y="412.8851">Obstacle Detection</text></g><!--entity Built-in LED Indicator--><g id="elem_Built-in LED Indicator"><rect fill="#FFFFFF" height="46.2969" rx="2.5" ry="2.5" style="stroke:#000000;stroke-width:1.0;" width="181" x="1012.5" y="379.89"/><rect fill="#FFFFFF" height="10" style="stroke:#000000;stroke-width:1.0;" width="15" x="1173.5" y="384.89"/><rect fill="#FFFFFF" height="2" style="stroke:#000000;stroke-width:1.0;" width="4" x="1171.5" y="386.89"/><rect fill="#FFFFFF" height="2" style="stroke:#000000;stroke-width:1.0;" width="4" x="1171.5" y="390.89"/><text fill="#000000" font-family="Verdana" font-size="14" lengthAdjust="spacing" textLength="141" x="1027.5" y="412.8851">Built-in LED Indicator</text></g><!--link Arduino Uno R3 to Adafruit Motor Shield--><g id="link_Arduino Uno R3_Adafruit Motor Shield"><path d="M618.65,72.32 C506.03,76.29 297.81,86.52 227,109.3 C197.83,118.68 173.097,133.6131 152.107,148.4731 " fill="none" id="Arduino Uno R3-to-Adafruit Motor Shield" style="stroke:#000000;stroke-width:1.0;"/><polygon fill="#000000" points="147.21,151.94,156.8668,150.0044,151.2908,149.0509,152.2443,143.475,147.21,151.94" style="stroke:#000000;stroke-width:1.0;"/></g><!--link Arduino Uno R3 to Raspberry Pi Pico (LCD)--><g id="link_Arduino Uno R3_Raspberry Pi Pico (LCD)"><path d="M618.65,76.41 C572.81,81.82 513.37,91.68 463,109.3 C432.96,119.81 406.6157,134.3564 383.7557,148.6664 " fill="none" id="Arduino Uno R3-to-Raspberry Pi Pico (LCD)" style="stroke:#000000;stroke-width:1.0;"/><polygon fill="#000000" points="378.67,151.85,388.421,150.4651,382.9081,149.197,384.1762,143.6841,378.67,151.85" style="stroke:#000000;stroke-width:1.0;"/></g><!--link Arduino Uno R3 to Raspberry Pi Pico (Sensors)--><g id="link_Arduino Uno R3_Raspberry Pi Pico (Sensors)"><path d="M671.74,92.78 C655.3,110.28 636.7593,130.0081 620.3293,147.4881 " fill="none" id="Arduino Uno R3-to-Raspberry Pi Pico (Sensors)" style="stroke:#000000;stroke-width:1.0;"/><polygon fill="#000000" points="616.22,151.86,625.2986,148.0417,619.6444,148.2167,619.4693,142.5626,616.22,151.86" style="stroke:#000000;stroke-width:1.0;"/></g><!--link Arduino Uno R3 to Task Management--><g id="link_Arduino Uno R3_Task Management"><path d="M767.36,69.49 C836.1,71.06 940.14,79.01 1025,109.3 C1052.31,119.05 1075.0221,133.6173 1094.5721,148.2973 " fill="none" id="Arduino Uno R3-to-Task Management" style="stroke:#000000;stroke-width:1.0;"/><polygon fill="#000000" points="1099.37,151.9,1094.5749,143.2973,1095.3717,148.8977,1089.7713,149.6945,1099.37,151.9" style="stroke:#000000;stroke-width:1.0;"/></g><!--link Arduino Uno R3 to Motor Control--><g id="link_Arduino Uno R3_Motor Control"><path d="M767.11,80.91 C796.09,86.87 829.02,95.89 857,109.3 C879.63,120.15 897.4552,133.863 913.3752,148.083 " fill="none" id="Arduino Uno R3-to-Motor Control" style="stroke:#000000;stroke-width:1.0;"/><polygon fill="#000000" points="917.85,152.08,913.8024,143.1013,914.121,148.7492,908.4731,149.0677,917.85,152.08" style="stroke:#000000;stroke-width:1.0;"/></g><!--link Arduino Uno R3 to Logging--><g id="link_Arduino Uno R3_Logging"><path d="M722.84,92.76 C729.07,97.95 735.43,103.62 741,109.3 C753.97,122.53 763.276,134.1285 772.836,147.1885 " fill="none" id="Arduino Uno R3-to-Logging" style="stroke:#000000;stroke-width:1.0;"/><polygon fill="#000000" points="776.38,152.03,774.2917,142.4051,773.4267,147.9954,767.8363,147.1304,776.38,152.03" style="stroke:#000000;stroke-width:1.0;"/></g><!--link Raspberry Pi Pico (LCD) to 16x2 LCD Screen--><g id="link_Raspberry Pi Pico (LCD)_16x2 LCD Screen"><path d="M341.43,198.89 C338.03,220.22 333.8931,246.1846 330.5031,267.4846 " fill="none" id="Raspberry Pi Pico (LCD)-to-16x2 LCD Screen" style="stroke:#000000;stroke-width:1.0;"/><polygon fill="#000000" points="329.56,273.41,334.9249,265.1506,330.3459,268.4721,327.0243,263.8932,329.56,273.41" style="stroke:#000000;stroke-width:1.0;"/></g><!--link 16x2 LCD Screen to Score Display--><g id="link_16x2 LCD Screen_Score Display"><path d="M284.12,320.38 C251.75,337.87 212.4287,359.1177 180.0787,376.5977 " fill="none" id="16x2 LCD Screen-to-Score Display" style="stroke:#000000;stroke-width:1.0;"/><polygon fill="#000000" points="174.8,379.45,184.6195,378.6907,179.1989,377.0731,180.8165,371.6525,174.8,379.45" style="stroke:#000000;stroke-width:1.0;"/></g><!--link 16x2 LCD Screen to Team Selection--><g id="link_16x2 LCD Screen_Team Selection"><path d="M322.09,320.38 C319.08,337.87 315.9415,356.0576 312.9215,373.5376 " fill="none" id="16x2 LCD Screen-to-Team Selection" style="stroke:#000000;stroke-width:1.0;"/><polygon fill="#000000" points="311.9,379.45,317.3738,371.2624,312.7512,374.523,309.4906,369.9004,311.9,379.45" style="stroke:#000000;stroke-width:1.0;"/></g><!--link 16x2 LCD Screen to User Interface--><g id="link_16x2 LCD Screen_User Interface"><path d="M360.5,320.38 C387.17,337.87 418.8924,358.6801 445.5524,376.1601 " fill="none" id="16x2 LCD Screen-to-User Interface" style="stroke:#000000;stroke-width:1.0;"/><polygon fill="#000000" points="450.57,379.45,445.2368,371.1701,446.3886,376.7084,440.8503,377.8603,450.57,379.45" style="stroke:#000000;stroke-width:1.0;"/></g><!--link Raspberry Pi Pico (Sensors) to 8 Ultrasonic Sensors--><g id="link_Raspberry Pi Pico (Sensors)_8 Ultrasonic Sensors"><path d="M632.62,198.89 C668.26,220.15 716.3568,248.8368 752.0568,270.1268 " fill="none" id="Raspberry Pi Pico (Sensors)-to-8 Ultrasonic Sensors" style="stroke:#000000;stroke-width:1.0;"/><polygon fill="#000000" points="757.21,273.2,751.529,265.1548,752.9157,270.639,747.4314,272.0257,757.21,273.2" style="stroke:#000000;stroke-width:1.0;"/></g><!--link 8 Ultrasonic Sensors to Filtered Readings--><g id="link_8 Ultrasonic Sensors_Filtered Readings"><path d="M772,320.38 C754.22,337.87 733.9962,357.7612 716.2362,375.2412 " fill="none" id="8 Ultrasonic Sensors-to-Filtered Readings" style="stroke:#000000;stroke-width:1.0;"/><polygon fill="#000000" points="711.96,379.45,721.1802,375.9876,715.5235,375.9427,715.5685,370.286,711.96,379.45" style="stroke:#000000;stroke-width:1.0;"/></g><!--link 8 Ultrasonic Sensors to Obstacle Detection--><g id="link_8 Ultrasonic Sensors_Obstacle Detection"><path d="M815.83,320.38 C831.93,337.87 850.0565,357.5555 866.1465,375.0355 " fill="none" id="8 Ultrasonic Sensors-to-Obstacle Detection" style="stroke:#000000;stroke-width:1.0;"/><polygon fill="#000000" points="870.21,379.45,867.0578,370.1192,866.8238,375.7712,861.1717,375.5372,870.21,379.45" style="stroke:#000000;stroke-width:1.0;"/></g><!--link 8 Ultrasonic Sensors to Built-in LED Indicator--><g id="link_8 Ultrasonic Sensors_Built-in LED Indicator"><path d="M861.83,320.38 C913.49,337.87 978.9869,360.0459 1030.6169,377.5259 " fill="none" id="8 Ultrasonic Sensors-to-Built-in LED Indicator" style="stroke:#000000;stroke-width:1.0;"/><polygon fill="#000000" points="1036.3,379.45,1029.058,372.7751,1031.5641,377.8466,1026.4926,380.3526,1036.3,379.45" style="stroke:#000000;stroke-width:1.0;"/></g><!--SRC=[bLDBJy904BxpAqPEUk2W9iQJ2IyJ4nf8bvuCXs4xb9LsjvbT4Xl3VtUaO1eHgarxsPrlliTChyAQ2e8oHsCx9UeDPWJTY38S48MSO9p4qy5q3ZDsRwH35puw8CzhdzEjiGuI-UBx1VHwJtAOuegt9a3aWcDGQqDvkhW0YD6NIsAkO6RarGwk9yFHpJyXYgntx0MsnsbNbCwI3M94RC7GsS0k1rNvG4KNq4CqL0SZvudcw3SGePL42ccsQ2clBH-useedBikCpUgotObioG16nijKggRgh-E6wdFXrHIt3-ztUuJIJ6GRYdxUrFLAEwOZQslrdB00HRciX77jpHDF32ys4AzGqpdRIHuOlRD6GprIw3DZjVUUg7wBz-yjg2aVuQITR-ZyzRf6FfjSX58ACM4gK_eZRBhq0RNyCYCA9x5Sm0ssmjUJFPsCHv9HQZJA9Xqpsdq2]--></g></svg>